ply
format ascii 1.0
comment Generated by PyMesh
element vertex 323
property float x
property float y
property float z
property float charge
property float hbond
property float hphob
property float nx
property float ny
property float nz
element face 104
property list uchar int vertex_indices
end_header
-0.913 -31.873 11.2098 0.294057 -0.00568582 1.8 0.998504 0.0462843 0.0291052
-0.597 -30.763 10.244 -0.568392 -0 1.8 0.955121 -0.274045 0.112439
-0.649375 -33.6351 12.3311 0.508585 0 1.8 0.898844 -0.394701 0.190503
-2.84238 -35.0911 12.0895 0.493869 0 1.8 -0.0925209 -0.988771 0.117355
-1.60563 -34.725 11.049 0.54586 0 1.8 0.404138 -0.90011 -0.162708
-0.795937 -30.0032 11.4214 0.526138 0 0.624499 0.870855 -0.476027 0.122515
-0.64275 -29.7531 12.5111 -0.376198 0 -0.4 0.658135 -0.749907 0.0670645
-1.17425 -31.1816 12.2843 0.597094 -0.0370268 1.46296 0.994352 0.0094323 0.10571
0.6465 -28.6076 9.98038 0.511608 -0.567085 -0.503131 0.324245 -0.94146 -0.0922989
0.348 -29.188 11.5819 0.442993 0 -0.758501 0.286926 -0.931962 -0.221632
2.13188 -28.9044 10.8294 0.494429 0 -0.8 0.292909 -0.93081 -0.218626
3.52144 -27.981 11.1584 0.401476 0 -0.8 0.294932 -0.930255 -0.218266
0.97725 -28.5545 14.547 0.521665 0 -0.8 0.0934657 -0.991444 -0.0911161
1.32325 -29.3355 12.3162 0.42462 0 -0.8 0.216634 -0.971599 0.0952071
3.8225 -28.3065 12.594 1.32102 0 -0.364465 0.044822 -0.997582 0.0531176
7.76963 -27.9219 14.2944 0.321871 0 1.8 -0.0679866 -0.997667 0.00613812
7.54338 -28.7549 12.1993 0.599348 0 1.8 -0.007939 -0.970982 -0.23902
8.83394 -28.0336 10.3549 -0.233371 0 1.8 -0.370472 -0.920789 -0.122056
6.04362 -28.7216 11.1962 0.719429 0 1.8 -0.0745279 -0.956268 -0.282837
5.00375 -27.717 10.0618 1.13107 0.391179 0.461903 -0.263837 -0.958403 -0.108879
6.1905 -29.049 13.0108 0.640549 0 1.8 -0.116789 -0.985894 0.119892
4.822 -28.1998 11.4757 0.930977 0 1.8 -0.220264 -0.939649 -0.261808
9.7 -29.3644 13.6261 0.143298 0 -0.7 -0.93616 -0.310857 0.164234
10.5245 -31.9802 13.6642 0.840412 0 -0.7 -0.743625 -0.658979 0.113
9.41413 -30.8538 11.2186 0.507509 0 -0.7 -0.943806 -0.196183 -0.265974
12.518 -31.8635 15.272 0.254168 -0.94655 -0.7 -0.0383246 -0.975228 0.217858
9.6745 -30.7143 13.4782 0.418639 0 -0.7 -0.957569 -0.283054 0.0542464
11.2926 -32.9676 12.2472 2.09438 0.683713 -0.7 -0.740065 -0.644172 -0.19325
9.687 -31.9018 11.2998 0.678289 0 -0.7 -0.724818 -0.676244 -0.131658
9.334 -29.9004 11.788 0.290369 0 -0.7 -0.950327 -0.310933 -0.0141527
10.172 -30.3638 9.775 0.250954 0 -0.7 -0.922175 -0.252787 -0.292731
10.6781 -38.317 11.9371 0.995612 0 4.2 -0.999243 -0.0386368 0.00460691
11.2692 -34.8333 12.3554 0.819393 0 4.2 -0.870286 0.484315 -0.0896703
12.1595 -37.5395 9.12362 0.96363 0 4.2 -0.96994 -0.140632 0.198595
11.4535 -40.712 10.0175 1.6072 0 -3.9 -0.73082 0.627775 -0.267955
11.6225 -38.9545 14.2878 0.943089 0 4.2 -0.994105 0.0220387 0.106162
11.3651 -36.9354 14.3647 0.914662 0 4.2 -0.996854 0.0288305 0.073829
10.3392 -45.1505 12.4312 0.844255 0 -3.9 -0.424679 -0.905189 0.0167731
9.94 -40.6603 12.4858 2.3848 0 -3.9 -0.66509 0.725861 0.175446
9.50275 -41.1927 11.5262 3.71894 0 -3.9 -0.408723 0.888727 -0.207627
10.6275 -43.7539 10.2349 2.22965 0 -3.9 -0.337173 -0.931757 -0.1347
9.29 -41.8601 14.7621 3.08331 0.315151 -3.9 -0.399492 0.911997 0.0931034
7.47675 -41.9481 12.6053 2.86832 0.540911 -3.9 -0.941512 0.336854 0.00918581
8.06625 -44.3908 12.2157 2.0639 0.727838 -3.9 -0.600161 -0.799695 -0.017188
-0.024375 -30.3765 2.0255 0.470499 0 0.782939 0.928344 -0.351326 0.121439
0.34675 -30.3988 0.645375 -0.162069 -0.297218 1.8 0.959149 -0.154398 -0.237055
-1.23662 -35.1379 1.83413 0.54912 0 1.8 0.0215931 -0.980994 -0.192832
0.509313 -33.579 2.85669 0.492727 0 1.8 0.932074 -0.28447 0.224311
-2.1195 -34.9543 2.96125 0.514355 0 1.8 -0.264735 -0.950949 0.160035
-0.117625 -34.6632 1.42625 0.520767 0 1.8 0.542217 -0.792167 -0.280129
0.805375 -29.5533 1.99481 0.444786 0 -0.719475 0.529475 -0.841338 -0.108659
0.366625 -29.8501 2.88825 -0.462727 0 -0.4 0.693163 -0.712131 0.111331
2.18863 -29.3464 2.67175 0.385254 0 -0.8 0.248411 -0.949115 0.19358
3.4345 -28.9676 2.70138 0.485186 0 -0.8 0.441953 -0.89527 0.0562997
4.245 -28.252 3.347 1.90472 0 -0.8 0.260355 -0.925229 0.275983
1.01044 -28.9622 3.9925 -0.387798 -0.538105 -0.4 0.477353 -0.853076 0.210705
4.2115 -28.4438 2.15775 0.116867 0 -0.8 0.315371 -0.932427 -0.176412
8.30906 -28.7543 2.83962 0.556901 0 1.8 0.158221 -0.987018 -0.0275846
9.4 -28.661 2.999 0.464637 0 1.24598 -0.291598 -0.951878 0.0943369
5.62275 -28.352 2.712 0.685512 0 1.8 -0.145596 -0.989322 -0.00653997
6.92375 -28.1564 4.9075 0.679413 0 1.8 -0.0375269 -0.993437 0.108054
7.1455 -28.9126 3.37063 0.602733 0 1.8 -0.108067 -0.969812 0.2186
10.7545 -29.0182 4.586 -0.059019 0 -0.7 -0.93985 -0.301083 -0.161341
11.3883 -31.3557 3.96994 0.520932 0 -0.7 -0.810542 -0.559874 0.171939
11.9925 -32.7425 3.245 1.34671 0.784891 -0.7 -0.781862 -0.622508 0.0342842
10.8525 -31.055 2.91575 0.554715 0 -0.7 -0.898194 -0.403011 0.175581
10.6975 -30.117 4.52281 0.3135 0 -0.7 -0.949254 -0.258333 -0.179389
10.6895 -31.5305 1.3945 0.562272 0 -0.7 -0.77899 -0.555345 -0.291149
10.3621 -29.4029 3.02238 0.4383 0 -0.7 -0.887298 -0.433032 0.158702
12.1429 -37.6628 2.99537 0.807669 0 4.2 -0.975242 -0.1796 0.129021
12.0245 -38.7095 2.7665 0.850367 0 4.2 -0.968934 0.211301 0.128523
12.0107 -35.1077 2.8335 0.680595 0 4.2 -0.888809 0.456808 0.0366804
12.877 -38.6188 4.64625 0.86398 0 4.2 -0.99785 0.0655184 -0.00155246
11.4664 -36.4835 2.28262 0.6886 0 4.2 -0.978541 -0.127665 -0.161739
12.774 -35.4075 4.41325 0.724784 0 4.2 -0.896662 0.333046 0.291681
12.4905 -45.0112 2.85975 0.676395 0 -3.9 -0.218421 -0.965032 0.144933
11.31 -40.399 2.87675 2.12789 0 -3.9 -0.642253 0.757321 -0.11822
8.943 -42.846 2.675 2.89301 0 -3.9 -0.975871 -0.210811 -0.0568632
11.5766 -43.6325 4.54663 2.01816 0 -3.9 -0.303124 -0.916277 0.261826
9.07925 -41.2371 3.12212 2.12326 0.859226 -3.9 -0.73462 0.656675 0.17062
10.0434 -44.2597 2.816 2.54044 0.805132 -3.9 -0.481464 -0.875673 0.0372798
-0.418 -31.8339 6.72188 0.450572 0 1.8 0.990973 0.0926242 0.0969192
-0.0105 -31.04 5.313 -0.333579 -0.0144672 1.8 0.997545 -0.0609593 0.0344712
-1.80037 -35.1029 6.68113 0.563563 0 1.8 -0.0266119 -0.993257 -0.112836
0.08025 -33.2847 7.37231 0.501649 0 1.8 0.968296 -0.186914 0.165728
-2.3335 -35.0525 8.0705 0.495721 0 1.8 -0.211886 -0.946789 0.242269
-0.11075 -33.9637 6.40975 0.518461 0 1.8 0.927725 -0.348336 -0.134116
-0.193687 -29.9587 6.74344 0.579311 0 0.920076 0.865155 -0.501431 0.00860671
-0.142312 -29.8967 7.87156 -0.480552 0 -0.4 0.750422 -0.66025 0.0306057
-0.648875 -31.2388 7.69688 0.474264 -0.116079 0.807921 0.997583 -0.00590374 0.0692358
-0.127625 -30.0111 5.40637 0.0337935 -0.403566 1.8 0.915396 -0.385057 0.117396
0.54525 -29.0125 5.8105 0.755841 -0.03824 -0.705296 0.593362 -0.804719 -0.0186687
0.866375 -29.2571 6.79712 0.459228 0 -0.758947 0.229898 -0.928767 -0.290756
2.34525 -29.2388 6.52725 0.472414 0 -0.8 0.178931 -0.947879 -0.263645
3.9 -28.362 7.988 1.77496 0 -0.8 0.262023 -0.946982 0.185927
2.00125 -28.4995 9.2185 0.676553 0 -0.8 0.282346 -0.924914 0.254586
1.71137 -29.4434 7.47675 0.435219 0 -0.8 0.202111 -0.973044 0.111068
2.85575 -28.7685 5.793 0.539528 0 -0.8 0.399737 -0.868313 -0.293673
7.23413 -28.1165 9.75863 0.517443 0 1.8 0.0971711 -0.984373 0.146857
8.22287 -27.7406 5.6945 -0.142278 -0.300762 1.8 0.0871153 -0.984697 -0.150938
5.597 -28.3722 8.40362 0.927523 0 1.8 -0.384712 -0.877201 0.287254
6.63175 -29.016 8.27287 0.656732 0 1.8 -0.120894 -0.949755 0.288704
7.30175 -28.9685 7.36775 0.637098 0 1.8 0.0421255 -0.96894 -0.24368
10.1315 -29.4715 8.7115 0.269843 0 -0.7 -0.944465 -0.328559 -0.00589976
10.4838 -31.1114 8.45497 0.488946 0 -0.7 -0.861683 -0.50475 0.0522511
11.1425 -32.013 8.64787 1.15038 0.0650899 -0.7 -0.729954 -0.668335 0.143161
9.85363 -30.2529 6.57638 0.426818 0 -0.7 -0.939088 -0.285965 -0.190625
11.6216 -32.5444 7.34906 1.8479 0.468537 -0.7 -0.674459 -0.688528 -0.26652
11.0939 -32.0475 6.32137 0.717759 0 -0.7 -0.397859 -0.883313 -0.247925
12.6775 -31.957 6.3745 0.619636 0 -0.7 -0.19095 -0.936043 -0.29557
13.1248 -34.8078 6.08612 0.767055 0 4.2 -0.760387 0.617531 -0.201164
11.5351 -37.8382 7.8275 0.963647 0 4.2 -0.958407 -0.178409 0.222768
11.7975 -34.9296 7.85256 0.795791 0 4.2 -0.853098 0.491836 -0.174127
12.5395 -35.7308 5.42775 0.803807 0 4.2 -0.824465 0.482406 -0.295875
12.228 -38.762 9.1035 0.981168 0 4.2 -0.987292 0.0978529 0.125215
11.0684 -36.0284 7.82475 0.824023 0 4.2 -0.917118 0.381807 0.114534
10.6593 -40.5607 7.7065 2.38316 0 -3.9 -0.668575 0.742622 -0.0389728
8.347 -43.361 7.473 3.30493 0 -3.9 -0.888105 -0.43323 0.153561
11.7797 -40.2785 8.80875 1.75489 0 -3.9 -0.823476 0.511174 0.246149
12.2517 -44.0199 5.42263 1.13939 0 -3.9 -0.205871 -0.941473 -0.266919
10.3275 -41.6247 9.89 2.88063 0 -3.9 -0.432515 0.900239 -0.0500009
8.41362 -41.3704 7.98688 2.26668 0.862871 -3.9 -0.762607 0.606792 0.224131
10.4656 -43.3565 5.42975 2.91593 0.24739 -3.9 -0.292145 -0.908201 -0.299705
9.337 -44.419 7.48825 2.96242 0.776476 -3.9 -0.400959 -0.899011 -0.176103
-1.41663 -31.8106 16.3559 0.390402 0 1.8 0.99538 0.026425 0.0923012
-0.983 -31.006 14.9495 -0.275481 -0.0343245 1.8 0.990381 -0.132325 0.040433
-2.07275 -34.7882 15.8994 0.503334 0 1.8 0.367949 -0.906742 -0.205991
-1.08881 -33.5525 17.3399 0.451177 0 1.8 0.952988 -0.208709 0.219669
-3.4275 -34.987 17.6825 0.43382 0 1.8 -0.28579 -0.92214 0.260734
-1.1705 -33.9475 16.0392 0.482831 0 1.8 0.876015 -0.472941 -0.0944648
-1.05603 -29.9332 16.0582 0.543317 -0.0759481 1.8 0.896879 -0.435248 0.0785273
-0.560687 -29.3419 17.8743 -1.11569 0 -0.493992 0.445758 -0.880032 0.163841
-1.4555 -30.215 17.5535 -0.0130259 -0.0531354 -0.4 0.862117 -0.489919 0.129356
-1.06938 -30.132 13.949 -0.1541 -0.502828 1.00999 0.93683 -0.341498 0.0756826
-0.38775 -28.7875 14.605 0.393804 -0.580447 -0.4 0.552035 -0.83362 0.0183241
0.0043125 -29.1936 16.2101 0.489849 0 -0.8 0.205431 -0.953084 -0.222327
1.5665 -28.9478 15.504 0.48806 0 -0.8 0.225179 -0.933284 -0.279777
2.79137 -28.326 18.1966 2.19733 0.17285 -0.8 0.305203 -0.925518 0.224203
0.59525 -28.674 18.7887 0.446739 0 -0.8 0.154922 -0.973954 0.165568
0.9215 -29.4371 17.1796 0.396917 0 -0.8 0.140869 -0.981797 0.1274
6.70837 -28.2104 19.4706 0.269727 0 1.8 0.0715948 -0.994918 0.0707912
7.59981 -29.0172 17.5971 0.489152 0 1.54623 -0.104417 -0.991498 -0.0776392
4.6395 -28.5815 16.4255 0.77037 0 1.8 -0.369866 -0.903996 -0.214454
4.40575 -27.759 15.3025 1.11343 0 1.8 -0.213728 -0.934773 -0.283761
6.3865 -29.171 17.024 0.591827 0 1.8 0.136855 -0.969699 -0.202372
3.9585 -28.394 17.3645 0.889093 0 1.66972 -0.180773 -0.978023 0.103882
10.0628 -32.34 17.9982 1.37951 0.176848 -0.7 -0.752849 -0.655696 0.0572874
8.979 -30.8794 16.0641 0.460187 0 -0.7 -0.94652 -0.247063 -0.20751
9.594 -28.906 15.0545 -0.771997 0 -0.7 -0.793608 -0.54558 -0.269312
9.2465 -31.022 18.425 0.395774 0 -0.7 -0.899081 -0.428607 0.0891636
9.82887 -32.169 15.7946 0.673603 0 -0.7 -0.572063 -0.779662 -0.254699
8.858 -29.8495 16.4608 0.256767 0 -0.7 -0.968376 -0.19198 -0.15935
10.7303 -32.0596 15.0308 0.603829 0 -0.7 -0.577078 -0.799374 -0.167278
12.8496 -35.247 15.159 0.8096 -0.123901 3.91789 -0.576656 0.80906 -0.113531
10.1643 -38.5228 16.8075 0.9515 0 4.2 -0.987598 -0.0909618 -0.127971
10.2148 -35.7136 17.3048 0.773379 0 4.2 -0.861767 0.503798 0.0595341
10.9965 -38.6168 19.0369 0.860124 0 4.2 -0.995933 -0.0247248 -0.0866391
9.72863 -37.0209 16.7051 0.841594 0 4.2 -0.952397 0.0677617 -0.297233
10.813 -35.1385 17.8948 0.761477 0 4.2 -0.809138 0.513723 0.285278
9.41525 -40.88 17.1195 2.46174 0 -3.9 -0.659358 0.749498 -0.0591619
7.16275 -43.7718 17.4942 3.77426 0.0887882 -3.9 -0.920773 -0.368193 0.128883
10.6834 -44.2754 15.0248 1.2448 0 -3.9 -0.269145 -0.933258 -0.237887
9.87975 -45.4782 17.1763 0.765357 0 -3.9 -0.401007 -0.915828 -0.0212771
8.85112 -42.017 19.8517 2.72046 0.092192 -3.9 -0.419214 0.863414 -0.28067
7.13613 -41.6079 16.9223 2.6298 0.472194 -3.9 -0.643807 0.730311 -0.228381
9.22475 -43.7124 15.2258 3.23153 0.193393 -3.9 -0.350226 -0.890931 -0.289109
-2.0505 -31.7682 21.1134 0.364244 0 1.8 0.975819 0.0927538 0.197924
-1.7355 -31.2035 18.817 -0.941121 -0.0530066 1.8 0.992235 -0.035776 0.119119
-1.898 -34.0326 21.8541 0.415197 0 1.8 0.732179 -0.622716 0.275935
-1.5635 -33.0112 21.8097 0.399451 0 1.8 0.981682 0.0571753 0.181746
-3.9235 -35.0218 21.2695 0.419378 0 1.8 -0.1796 -0.973655 -0.140498
-2.77163 -34.7298 20.6588 0.45334 0 1.8 0.370247 -0.904928 -0.209813
-1.6505 -30.491 20.0397 -0.354789 -0.171991 1.8 0.953897 -0.287124 0.0874083
-1.29 -29.1 19.604 0.190774 -0.135321 -0.4 0.682582 -0.730749 -0.00931422
-0.932437 -29.4199 21.3786 0.272364 0 -0.62269 0.380367 -0.921571 0.0776383
1.56375 -29.0575 21.9035 0.355599 0 -0.8 0.38096 -0.922494 0.0622354
2.94812 -28.442 21.734 0.51295 0 0.47734 0.160638 -0.986963 -0.0100009
0.336 -29.5058 21.438 0.333434 0 -0.8 0.103839 -0.984908 -0.138472
1.03437 -28.9792 20.2664 0.390811 0 -0.8 0.242267 -0.938162 -0.247304
6.48588 -29.1262 22.3626 0.475235 0 1.8 0.164893 -0.968719 0.185458
5.13637 -29.3221 22.0411 0.526307 0 1.8 -0.192843 -0.981228 0.00173988
4.186 -28.9595 21.497 0.597939 0 1.8 -0.464453 -0.885543 -0.00988024
5.49781 -28.4721 19.525 0.66447 0 1.8 -0.18086 -0.983429 0.0125205
8.80766 -31.6433 22.5523 0.442507 0 -0.7 -0.868321 -0.417008 0.268555
9.49687 -32.9026 22.325 1.37986 0.353475 -0.7 -0.822889 -0.56425 0.0668988
8.28019 -30.7211 21.3418 0.368484 0 -0.7 -0.950646 -0.309939 0.0144822
9.19775 -32.3745 20.5252 0.610351 0 -0.7 -0.627995 -0.746599 -0.219573
10.1746 -32.2197 19.3793 0.573671 0 -0.7 -0.688259 -0.714691 -0.124565
10.4954 -36.6799 19.8438 0.795114 0 4.2 -0.968839 0.186876 -0.162569
10.908 -40.0515 19.1965 0.962084 0 0.906625 -0.925229 0.361776 -0.114321
9.66263 -35.8932 21.5842 0.659786 0 4.2 -0.828093 0.509779 -0.233212
8.99275 -36.991 21.437 0.682027 0 4.2 -0.9642 -0.0316727 -0.263278
8.90175 -45.605 22.025 0.732543 0 -3.9 -0.348998 -0.936961 0.0174747
8.57275 -41.0435 22.0907 2.00181 0 -3.9 -0.599786 0.747246 0.286146
8.10447 -41.5578 21.1346 3.66151 0 -3.9 -0.418033 0.869442 -0.263285
8.961 -43.9383 19.508 2.18137 0 -3.9 -0.389279 -0.918118 -0.0743092
6.24325 -41.9438 21.7111 3.77712 0.349183 -3.9 -0.781857 0.622937 -0.0254561
6.60625 -44.6558 22.0912 1.93612 0.844108 -3.9 -0.634626 -0.742299 0.215039
-3.47425 -34.5788 10.5204 1.36422 0.334391 1.8 -0.126616 -0.983962 -0.125644
-4.0645 -34.1437 13.441 0.705931 0.261809 1.8 -0.174606 -0.964724 -0.197029
-1.92875 -34.1095 13.6622 0.474362 0 1.8 0.524982 -0.804751 0.277073
-3.02437 -34.3784 13.9222 0.523633 0.132289 1.8 -0.0406374 -0.995199 0.0890323
-3.73837 -34.5672 15.3555 1.14471 0.0772223 1.8 -0.0710401 -0.984207 -0.16214
-0.662 -32.1735 12.568 0.424515 0 1.8 0.969011 0.217429 0.117226
-0.941 -32.4953 10.2867 -0.137794 -0.608185 1.8 0.998954 -0.0436879 0.0134936
-0.707 -31.1998 9.16725 -0.938669 -0.0598382 1.8 0.986658 -0.117229 0.112975
-0.70925 -33.8727 11.1873 0.518587 0 1.8 0.94574 -0.314652 -0.0810598
-0.854875 -33.3601 9.01437 0.395357 0 1.8 0.900765 -0.381864 0.206886
-0.257 -32.141 8.021 0.414534 0 1.8 0.960228 0.208446 0.185776
-1.79475 -34.9137 12.239 0.506765 0 1.8 0.458214 -0.861344 0.219375
-1.43125 -33.1845 14.1943 0.308319 0 1.8 0.906528 -0.341484 0.248186
-1.783 -34.1527 14.7146 0.466869 0 1.8 0.656751 -0.72696 -0.200519
-1.238 -32.036 14.2063 -0.505286 -0.107609 1.8 0.98884 -0.0267066 0.146568
-2.55375 -34.315 9.26425 0.602458 0.223176 1.8 0.139399 -0.990222 0.00527106
2.0055 -28.7178 13.3295 0.755076 0 -0.8 0.254562 -0.927573 0.273507
2.53912 -28.9137 12.2894 0.583434 0 -0.8 0.410478 -0.908067 0.0831997
3.6925 -27.6667 9.906 1.45431 0.639556 -0.8 0.211673 -0.975412 -0.0613674
6.02362 -28.1455 9.5395 0.847686 0 1.8 -0.268861 -0.952113 0.145584
4.079 -27.8704 13.7522 1.5037 0.567592 -0.8 -0.180218 -0.943246 0.278943
2.03125 -28.514 14.718 0.65222 0 -0.8 0.346245 -0.927558 -0.140536
2.05725 -29.078 17.1964 0.518794 0 -0.8 0.415812 -0.902582 0.111561
3.29625 -27.6825 14.634 1.34802 0.620178 -0.8 0.286056 -0.953173 0.0981443
3.35941 -28.1663 16.1567 0.397989 0 -0.8 0.214809 -0.952555 -0.21563
8.73763 -29.0684 12.4213 0.380073 0 1.11054 -0.49408 -0.84742 0.19433
6.15744 -28.2616 14.5564 0.677616 0 1.8 -0.0181513 -0.995785 0.0899033
9.6235 -28.4245 9.067 0.184017 0 0.52432 -0.578078 -0.795902 0.179905
8.45244 -28.8112 7.91456 0.522837 0 1.56173 -0.115525 -0.992471 0.040695
5.11575 -28.4342 7.45975 0.869736 0 1.39135 -0.204576 -0.977626 -0.0489575
9.79625 -31.3072 12.54 0.554166 0 -0.7 -0.891574 -0.405032 0.202596
9.87025 -31.172 14.6488 0.446861 0 -0.7 -0.827842 -0.490949 -0.271379
10.447 -32.2525 12.409 1.09293 0.0560054 -0.7 -0.660023 -0.746681 0.0826836
10.9536 -32.358 11.3961 0.928523 0 -0.7 -0.260674 -0.917129 -0.301534
11.6683 -32.1011 9.89175 0.692174 0 -0.7 -0.436492 -0.896139 0.0800601
13.9265 -33.0592 15.444 0.804693 0 2.8 -0.94362 -0.325086 -0.0624459
12.908 -32.475 10.2535 0.755598 0 -0.7 -0.785887 -0.579811 0.214945
13.0468 -34.1852 10.4867 0.796494 0 4.2 -0.970391 0.228439 0.078472
9.81588 -29.584 7.46887 0.350295 0 -0.7 -0.816178 -0.544028 0.194648
11.439 -40.1161 14.0426 1.18735 0 -2.31126 -0.92966 0.368417 0.00124716
10.876 -36.6969 7.0505 0.844815 0 4.2 -0.985472 -0.118035 -0.122114
9.417 -40.886 8.021 2.83131 0.232145 -3.9 -0.354304 0.919705 0.169147
10.7972 -40.9525 14.88 1.56924 0 -3.9 -0.77355 0.631022 -0.0585759
8.989 -43.7713 13.7261 2.92334 0 -3.9 -0.506824 -0.831628 0.226988
9.43213 -44.5759 12.656 1.79327 0.140423 -3.9 -0.35175 -0.920291 0.171277
7.7365 -41.5985 11.705 3.06549 0.107352 -3.9 -0.640408 0.708837 -0.295681
8.6105 -41.1705 13.093 3.03103 0.319 -3.9 -0.517453 0.831567 0.201839
8.22437 -42.4776 14.089 2.74516 0.236474 -3.9 -0.958951 0.200002 0.201028
8.82312 -42.1154 9.48594 2.09248 0.545242 -3.9 -0.958677 0.265603 0.101945
11.5765 -44.163 9.49175 1.26641 0 -3.9 -0.284351 -0.958666 0.0102021
10.7647 -44.798 7.64225 0.973575 0 -3.9 -0.321769 -0.940499 -0.109206
-0.604 -35.0363 2.64525 0.514599 0 1.8 0.405945 -0.886042 0.223915
-1.99625 -34.7043 1.0315 0.949111 0 1.8 -0.0627425 -0.955953 -0.286736
-1.81687 -34.4065 4.58488 0.629973 0.234575 1.8 0.049295 -0.998773 0.00480842
0.2005 -32.4705 0.9155 0.0939131 0 1.8 0.957718 0.0289633 -0.286248
0.263 -32.152 3.174 0.394218 0 1.8 0.974485 0.176681 0.138433
0.021 -29.91 4.0825 -0.577031 -0.17386 -0.0305863 0.881217 -0.454465 0.13007
-0.23725 -31.0907 4.10625 -0.641276 -0.231529 1.8 0.99968 0.0129287 0.0217299
-0.14375 -31.2499 2.85175 0.447207 -0.120302 0.775542 0.99829 0.000422615 0.0584559
0.097625 -31.8479 1.87725 0.436018 0 1.8 0.984372 0.163656 0.0650336
0.527 -33.6605 1.5115 0.488285 0 1.8 0.979327 -0.118658 -0.163827
-0.620875 -34.1431 5.12213 0.488156 0 1.8 0.79732 -0.590687 -0.123975
-0.27375 -33.0653 4.517 0.25625 0 1.8 0.929754 -0.264005 0.256628
-2.66275 -34.6605 5.73625 1.24701 0.077495 1.8 -0.027669 -0.989423 -0.142396
1.47637 -28.6271 5.2175 0.527534 0 -0.8 0.273835 -0.955062 -0.113447
2.39987 -28.4993 4.52738 0.628247 0 -0.8 0.304128 -0.94818 0.091982
4.76931 -27.5387 5.11356 0.954117 0.558345 0.0947198 0.0391002 -0.999214 0.00651924
10.1575 -28.0825 4.586 0.08648 0 0.566012 -0.50613 -0.842318 0.18529
10.2575 -31.282 5.88125 0.573658 0 -0.7 -0.769419 -0.570601 -0.287069
11.483 -31.615 5.2495 0.576634 0 -0.7 -0.542335 -0.800217 -0.255978
9.31262 -28.8544 6.96325 0.207098 0 -0.7 -0.679566 -0.667048 -0.305347
13.475 -32.0485 5.748 0.642922 0 -0.7 -0.629353 -0.774706 0.0612004
11.339 -31.978 2.46075 0.733989 0.136233 -0.7 -0.642345 -0.764636 -0.0522004
12.7055 -33.8293 3.29644 0.861836 0.445128 1.28918 -0.974466 -0.134244 0.179986
12.5111 -36.7796 4.41684 0.829162 0 4.2 -0.985087 -0.131637 0.110796
12.1397 -40.573 5.20425 1.4647 0 -3.9 -0.788528 0.614958 0.00712281
13.9761 -33.8713 5.37238 0.697783 0 3.2979 -0.933939 0.327095 0.14411
11.3504 -44.4541 2.978 1.48147 0 -3.9 -0.312197 -0.946403 0.0827915
10 -40.943 3.476 2.93964 0.323663 -3.9 -0.363634 0.883357 0.295719
10.6707 -41.6001 5.1425 2.77018 0.294091 -3.9 -0.369467 0.928226 -0.0434826
9.489 -43.135 3.803 2.80585 0 -3.9 -0.768188 -0.587255 0.254988
-0.798375 -34.7721 6.30312 0.536263 0 1.8 0.480979 -0.868656 -0.118724
-0.35625 -32.5423 5.588 -0.121886 -0.504004 1.8 0.998288 -0.0581346 -0.00639908
2.961 -29.0382 7.47975 0.585745 0 -0.8 0.471995 -0.873456 0.119562
3.80306 -28.1952 6.50313 0.305728 0 -0.8 0.374461 -0.89245 -0.251618
12.4019 -33.9038 8.585 0.960474 0.379643 0.124782 -0.974595 0.0432314 0.219764
8.0855 -42.292 7.592 3.06724 0.163986 -3.9 -0.991371 -0.0452853 -0.123012
-3.22025 -35.105 16.5085 0.482194 0 1.8 -0.119947 -0.988864 -0.0880927
-3.69088 -34.2617 18.8609 0.52896 0.225142 1.8 0.0736237 -0.99724 -0.00955713
-1.28 -32.126 17.679 0.343583 0 1.8 0.969241 0.183569 0.163932
-1.5695 -30.1232 18.7315 -0.374148 -0.395969 0.699513 0.877908 -0.444824 0.177226
-1.63437 -31.2219 17.336 0.399117 0 1.8 0.991844 0.00884289 0.127154
-1.377 -32.522 15.2105 -0.127018 -0.507362 1.8 0.993147 -0.113639 -0.0273151
-1.90375 -32.7513 19.0834 0.119836 -0.45939 1.8 0.966277 -0.156865 0.204213
-4.63794 -34.5242 20.1318 1.24577 0.464676 1.8 -0.151748 -0.980555 -0.124435
-2.30562 -34.0704 19.5611 0.400195 0 1.8 0.688603 -0.688439 -0.227764
1.63038 -28.5128 19.5168 0.679296 0.130214 -0.8 0.385889 -0.922328 0.0199988
-0.308625 -28.7336 19.4536 0.303239 -0.648504 -0.446538 0.285231 -0.954392 0.0881992
4.873 -28.5605 18.2525 0.804204 0 1.8 -0.385591 -0.891096 0.239305
5.40175 -29.1933 17.554 0.630163 0 1.8 -0.286825 -0.956748 0.048626
2.927 -27.7075 19.9465 1.06161 0.345684 -0.400069 0.207672 -0.975662 -0.0704066
2.30512 -28.252 20.6635 0.127808 0 -0.8 0.361079 -0.890806 -0.27584
3.75125 -27.8446 18.9164 1.36144 0.568245 -0.8 -0.186418 -0.972074 0.142549
8.31775 -28.5791 19.1941 0.0696004 0 1.0255 -0.458517 -0.874608 0.157553
7.75769 -29.2917 21.6644 0.237421 0 -0.7 -0.629885 -0.770251 -0.0997918
9.1755 -30.7325 19.3862 0.217656 0 -0.7 -0.900869 -0.334455 -0.276721
8.96262 -29.6935 17.8151 0.340192 0 -0.7 -0.90626 -0.422444 0.0152686
9.405 -31.6917 17.3424 0.588149 0 -0.7 -0.88101 -0.467847 0.0702835
11.5337 -32.7228 20.1822 0.681561 0 -0.7 -0.559993 -0.792542 -0.241423
11.217 -35.873 19.9501 0.776642 0 4.2 -0.756002 0.6229 -0.201136
10.1855 -40.9415 19.1187 1.68093 0 -3.9 -0.625062 0.77211 0.11465
12.116 -34.3545 19.776 0.706871 0 0.681958 -0.994715 0.0369733 0.0957885
10.1891 -44.5594 19.0979 1.20324 0 -3.9 -0.326634 -0.94481 0.0253991
8.96663 -44.6465 16.6758 2.73649 0 -3.9 -0.295997 -0.90575 -0.303321
8.147 -41.149 17.663 2.56075 0.232515 -3.9 -0.363785 0.926923 0.0920542
7.603 -44.674 17.15 1.75936 0.819264 -3.9 -0.514267 -0.857615 0.00498654
6.7765 -42.5315 17.226 2.77657 0.147111 -3.9 -0.984024 0.0352791 -0.174508
7.54213 -42.2318 19.0993 1.9911 0.492208 -3.9 -0.699363 0.708544 0.0941051
7.696 -43.4375 19.0161 2.39645 0.439082 -3.9 -0.733936 -0.677865 0.042862
-1.85075 -33.9103 20.799 0.418612 0 1.8 0.921628 -0.368254 -0.122433
-1.99825 -32.4157 20.102 -0.230396 -0.0398567 1.8 0.999964 -0.00720292 -0.00458802
-2.9795 -34.9255 21.8248 0.398633 0 1.8 0.379516 -0.893956 0.238351
10.156 -34.6355 22.498 0.719649 0.482021 1.23734 -0.977564 0.100041 0.185365
7.819 -45.026 22.0195 1.81527 0.332383 -3.9 -0.309154 -0.948956 0.0624944
6.122 -43.724 21.852 3.41234 0 -3.9 -0.965059 -0.238371 -0.108816
3 197 319 183
3 75 233 274
3 320 197 192
3 320 197 183
3 170 197 292
3 170 197 319
3 310 75 233
3 80 75 250
3 80 48 250
3 174 170 292
3 174 170 319
3 306 320 183
3 271 75 274
3 162 310 192
3 162 310 75
3 162 80 192
3 162 80 75
3 313 197 192
3 313 80 192
3 45 75 250
3 175 174 319
3 309 306 233
3 309 306 320
3 309 320 192
3 309 310 192
3 309 310 233
3 301 306 233
3 269 233 274
3 43 80 48
3 43 313 80
3 43 48 197
3 43 313 197
3 198 199 292
3 198 197 292
3 198 48 197
3 198 48 250
3 198 199 250
3 265 269 233
3 44 199 250
3 44 45 250
3 67 271 75
3 67 45 75
3 67 271 274
3 67 269 274
3 179 319 183
3 179 175 319
3 8 134 91
3 56 55 264
3 56 67 45
3 148 301 233
3 148 265 233
3 148 265 301
3 254 44 91
3 254 44 199
3 50 44 45
3 50 56 45
3 50 56 55
3 50 55 91
3 50 44 91
3 302 179 183
3 302 179 301
3 302 306 183
3 302 301 306
3 262 55 91
3 262 8 91
3 262 55 264
3 262 8 264
3 173 298 174
3 173 174 292
3 173 199 292
3 173 254 199
3 173 134 91
3 173 254 91
3 216 8 264
3 216 8 134
3 176 179 175
3 176 298 179
3 176 175 174
3 176 298 174
3 140 179 301
3 140 298 179
3 58 56 67
3 295 298 134
3 295 173 134
3 295 173 298
3 221 298 134
3 221 216 134
3 221 298 264
3 221 216 264
3 15 140 298
3 15 265 301
3 15 140 301
3 68 58 265
3 68 58 67
3 68 265 269
3 68 67 269
3 59 58 265
3 59 58 56
3 59 265 264
3 59 56 264
3 99 298 264
3 99 15 298
3 99 265 264
3 99 15 265
